<svg width="48" height="45" viewBox="0 0 48 45" fill="none" xmlns="http://www.w3.org/2000/svg">
<path d="M39.7382 38.7859C30.3008 46.0524 17.1374 45.9943 7.76453 38.6447L14.6342 35.4244C14.9613 35.2707 15.2753 35.0903 15.573 34.8852C15.6633 34.823 15.7537 34.7581 15.8398 34.6903C16.5875 34.1183 17.2029 33.3916 17.6441 32.56C17.9776 31.921 18.1991 31.2296 18.2991 30.5157C18.3681 30.0526 18.403 29.585 18.4036 29.1167C18.4036 28.3092 18.3598 27.5016 18.3513 26.6927C18.3457 26.2447 18.341 25.7972 18.3372 25.3501L18.6196 25.4913L19.3537 25.871L19.6939 25.9289L23.6299 26.5981L28.0233 27.3463L28.1561 31.864L28.1998 33.3407L28.221 34.0579V34.1045L29.9292 34.799L39.7382 38.7859Z" fill="#E18477"/>
<path d="M28.215 33.9308C27.7298 34.0142 27.2306 33.9369 26.7933 33.7105L18.3693 26.8197C18.3595 26.5006 18.351 26.8352 18.3468 26.5162C18.3411 26.0691 18.3364 25.6216 18.3326 25.1736L18.615 25.3148L19.3491 25.6945L19.6893 25.7524L23.6253 26.4216L28.0188 27.1698L28.1515 31.6875L28.1952 33.1642L28.2164 33.8813V33.9279L28.215 33.9308Z" fill="#A76962"/>
<path d="M34.5147 11.0403C36.9368 12.4124 38.8444 14.5381 39.9472 17.094C39.0097 17.1699 38.0854 17.3624 37.1957 17.6671H37.1872C36.9557 17.7462 36.726 17.8333 36.4982 17.9283L36.3571 17.989L36.1326 18.0878C36.0578 18.1203 35.983 18.1556 35.9095 18.1923C35.8361 18.229 35.7684 18.2643 35.6879 18.3024C35.6074 18.3406 35.5467 18.3773 35.4691 18.4168C35.3914 18.4563 35.3406 18.486 35.2771 18.5227C35.1246 18.6074 34.975 18.6963 34.8281 18.7881C34.7698 18.8238 34.7119 18.8606 34.6545 18.8982C34.0883 19.2647 33.5567 19.6819 33.0662 20.1448C32.4465 20.7307 31.8677 21.4041 31.231 22.0055C30.6849 22.5559 30.0453 23.0048 29.342 23.3311C27.9811 23.917 26.407 24.2558 24.9938 24.7429L18.3585 27.037C18.3585 26.9326 17.6074 26.19 16.6644 25.285C14.1825 22.9255 12.7444 19.6734 12.6691 16.2497C12.4404 5.90714 24.59 2.8662 32.8573 5.08267C34.1705 5.43628 35.4194 5.99568 36.5575 6.74009C37.3113 7.22749 38.0009 7.80755 38.6102 8.46667C39.3213 9.23167 39.8924 10.1157 40.2973 11.0784L40.1858 11.0587C38.3118 10.7131 36.3909 10.7069 34.5147 11.0403Z" fill="url(#paint0_linear_950_626)"/>
<path d="M39.9471 17.0941C39.0097 17.17 38.0854 17.3626 37.1956 17.6673H37.1871C36.9528 17.7416 36.7228 17.8288 36.4982 17.9285L36.357 17.9892L36.1297 18.0908C36.0549 18.1247 35.9815 18.1586 35.9066 18.1953C35.8318 18.232 35.7655 18.2673 35.685 18.3054C35.6045 18.3435 35.5438 18.3802 35.4662 18.4198C35.3885 18.4593 35.3377 18.4889 35.2742 18.5257C35.1217 18.6104 34.972 18.6993 34.8252 18.7911L34.6516 18.9012C34.0854 19.2676 33.5538 19.6849 33.0633 20.1478C32.4436 20.7337 31.8648 21.4071 31.228 22.0085C31.0219 22.0932 30.8172 22.1821 30.6125 22.2711C30.6379 22.2598 30.4502 19.8711 30.4558 19.6297C30.4794 18.7073 30.5847 17.7889 30.7706 16.8852C31.1292 15.1473 30.9005 13.5308 31.2464 11.7492C31.3195 11.3515 31.4137 10.958 31.5288 10.5704C32.1189 10.1299 32.9405 9.99436 33.6563 9.8913C35.3716 9.64424 37.1363 9.8786 38.7866 10.3981C39.0596 10.4845 39.3277 10.5854 39.5899 10.7002C39.7142 10.7553 39.8356 10.8146 39.9556 10.8781C40.0614 10.9578 40.176 11.0251 40.2972 11.0786C38.385 10.7258 36.4256 10.7129 34.509 11.0405C36.9332 12.4116 38.8428 14.5374 39.9471 17.0941Z" fill="url(#paint1_linear_950_626)"/>
<ellipse cx="16.9482" cy="21.3956" rx="2.4" ry="2.4" fill="#E18477"/>
<ellipse cx="17.7084" cy="21.3955" rx="2.14871" ry="2.14871" fill="#A76962"/>
<path d="M17.7416 19.1312L18.3599 27.1782L27.7397 32.6587C29.0863 33.161 30.5941 32.5586 31.2239 31.2667C32.5736 28.5025 34.7392 24.1387 34.454 22.5138C34.0305 20.1138 32.9011 19.2667 32.9011 19.2667C33.0583 18.3255 33.2145 17.3872 33.3698 16.4516C33.5477 15.3914 33.7736 14.2846 33.511 13.2187C33.2103 11.9975 32.287 11.4752 31.5275 10.5618C29.5284 13.1368 26.2418 14.5924 23.3717 16.0676C21.8893 16.8469 17.7416 19.1312 17.7416 19.1312Z" fill="#E18477"/>
<path d="M22.2657 17.4666C23.5731 17.1986 24.9173 17.1627 26.237 17.3607" stroke="#00214E" stroke-width="0.198265"/>
<path d="M30.6029 17.482C31.4099 17.2956 32.2414 17.2379 33.0664 17.3112" stroke="#00214E" stroke-width="0.198265"/>
<path d="M27.3516 22.9148C27.1409 23.0227 27.0402 23.268 27.1146 23.4928C27.1889 23.7175 27.416 23.8546 27.6495 23.8155" stroke="#00214E" stroke-width="0.198265"/>
<path d="M29.8993 21.455C29.8993 21.455 29.9403 22.2526 30.128 22.6267C30.2085 22.7877 30.3341 22.9232 30.4104 23.0841C30.7224 23.6954 30.2184 23.8253 29.7313 23.8253" stroke="#00214E" stroke-width="0.198265"/>
<path d="M39.7382 38.7859C30.3008 46.0524 17.1374 45.9943 7.76453 38.6447L14.6342 35.4245C14.9613 35.2707 15.2753 35.0903 15.573 34.8852C15.6633 34.823 15.7537 34.7581 15.8398 34.6903C16.5875 34.1183 17.2029 33.3916 17.6441 32.56C17.9776 31.921 18.1991 31.2296 18.2991 30.5157C18.3988 30.6124 18.5034 30.7038 18.6125 30.7896C19.4782 31.4297 20.4176 31.9634 21.4106 32.3793C21.8928 32.5804 22.3858 32.7543 22.8873 32.9002C24.3985 33.3409 25.9763 33.5077 27.5462 33.3929C27.7636 33.376 27.9824 33.3548 28.1998 33.3393L28.221 34.0565V34.103L29.9292 34.7976L39.7382 38.7859Z" fill="#00214E"/>
<circle cx="25.2198" cy="19.5841" r="2.68235" stroke="white" stroke-width="0.198265"/>
<ellipse cx="32.7217" cy="19.1607" rx="2.68235" ry="2.68235" stroke="white" stroke-width="0.198265"/>
<path d="M27.9017 19.5843L30.0391 19.4008" stroke="white" stroke-width="0.198265"/>
<path d="M25.0192 25.4403C25.0585 25.3785 25.1217 25.3358 25.1937 25.3224C25.2658 25.3091 25.3401 25.3262 25.399 25.3697C25.6912 25.5759 26.2291 26.0135 26.9915 26.1646C28.0305 26.3721 28.9312 25.9556 29.1472 26.2239C29.2686 26.3749 29.1204 26.5599 28.8366 26.7956C28.2358 27.2443 27.4796 27.4321 26.7387 27.3166C25.7392 27.1288 24.9882 25.9712 24.9882 25.5603C24.9884 25.5184 24.9991 25.4771 25.0192 25.4403Z" fill="white"/>
<ellipse cx="24.5877" cy="19.5592" rx="0.461647" ry="1.12094" transform="rotate(-85.77 24.5877 19.5592)" fill="#00214E"/>
<ellipse cx="31.8599" cy="19.3304" rx="1.12094" ry="0.461647" transform="rotate(-8.85999 31.8599 19.3304)" fill="#00214E"/>
<defs>
<linearGradient id="paint0_linear_950_626" x1="28.6489" y1="29.4422" x2="45.3335" y2="8.75217" gradientUnits="userSpaceOnUse">
<stop stop-color="#16243F"/>
<stop offset="1" stop-color="#6878B1"/>
</linearGradient>
<linearGradient id="paint1_linear_950_626" x1="30.4572" y1="22.2707" x2="40.2972" y2="22.2707" gradientUnits="userSpaceOnUse">
<stop stop-color="#16243F"/>
<stop offset="1" stop-color="#6878B1"/>
</linearGradient>
</defs>
</svg>
