<svg width="84" height="35" viewBox="0 0 84 35" fill="none" xmlns="http://www.w3.org/2000/svg">
<rect x="-0.00012207" y="0.997803" width="84" height="34" rx="17" fill="#F5F5F5"/>
<path d="M16.3359 19.0698C16.3359 21.8558 18.0299 24.1098 20.8719 24.1098C22.5519 24.1098 23.4619 22.8498 23.7559 22.1358C23.7839 22.0658 23.8539 21.9958 23.9659 22.0378C24.0499 22.0658 24.0779 22.1498 24.0359 22.2618C23.8399 22.7378 23.7839 23.0318 23.7839 23.3538V23.9978H25.7439V18.8458H21.3759V20.4138H23.7699C23.4759 21.5058 22.6779 22.4298 21.2499 22.4298C19.2479 22.4298 18.2399 20.9038 18.2399 19.0698C18.2399 17.2078 19.3039 15.7098 21.3199 15.7098C22.8319 15.7098 23.5459 16.5358 23.8539 17.5018H25.7439C25.4359 15.7798 24.0779 14.0298 21.2919 14.0298C18.0719 14.0298 16.3359 16.2838 16.3359 19.0698ZM26.9218 15.7098H28.7138V13.9178H26.9218V15.7098ZM26.9218 23.9978H28.7138V16.6058H26.9218V23.9978ZM32.9057 15.4858H34.1517V13.9178H32.5277C31.0437 13.9178 30.3437 14.4078 30.3437 16.1858V16.6058H29.2237V18.1738H30.3437V23.9978H32.1357V18.1738H34.1517V16.6058H32.1357V16.3538C32.1357 15.5418 32.1497 15.4858 32.9057 15.4858ZM39.3594 18.1738V16.6058H37.3434V14.5898H35.5514V16.6058H34.2074V18.1738H35.5514V21.7298C35.5514 23.5078 36.2514 23.9978 37.7354 23.9978H39.3594V22.4298H38.1134C37.3574 22.4298 37.3434 22.3598 37.3434 21.5478V18.1738H39.3594ZM39.6338 20.3018C39.6338 22.4998 41.1178 24.1098 43.3718 24.1098C45.4578 24.1098 46.6758 22.7098 46.8018 21.1978H45.0378C44.9258 21.8978 44.3798 22.4858 43.3718 22.4858C42.1398 22.4858 41.4258 21.5898 41.4258 20.3018C41.4258 19.0138 42.1398 18.1178 43.3718 18.1178C44.3798 18.1178 44.9258 18.7058 45.0378 19.4058H46.8018C46.6758 17.8938 45.4438 16.4938 43.3718 16.4938C41.0758 16.4938 39.6338 18.1038 39.6338 20.3018ZM47.1878 21.9678C47.1878 23.2138 48.3778 24.1098 49.7638 24.1098C51.0798 24.1098 51.8918 23.5218 52.3118 22.4998C52.3398 22.4298 52.3958 22.2898 52.5358 22.3458C52.6618 22.4018 52.6058 22.5418 52.5498 22.6678C52.4238 22.9058 52.3398 23.1438 52.3398 23.4798V23.9978H54.1318V19.9098C54.1318 17.0538 52.6058 16.4938 50.9118 16.4938C49.2598 16.4938 47.6638 17.2078 47.4118 19.0698H49.1758C49.2738 18.4678 49.5958 17.9498 50.8558 17.9498C52.1298 17.9498 52.3258 18.5098 52.3398 19.0138C52.3538 19.6998 51.1918 19.5738 49.8758 19.6438C48.3918 19.7278 47.1878 20.3298 47.1878 21.9678ZM52.3398 20.1898C52.3258 22.0238 51.3458 22.6398 50.3938 22.7658C49.5678 22.8778 48.9798 22.4858 48.9798 21.8698C48.9798 21.2118 49.4138 20.9178 50.1838 20.8338C51.2478 20.7218 51.9198 20.6518 52.3398 20.1898ZM56.8555 18.1878C56.6875 18.1598 56.7295 17.9918 56.7855 17.8658C56.9115 17.6138 56.9955 17.3338 56.9955 17.0118V16.6058L55.2035 16.6058V23.9978H56.9955V20.7918C56.9955 18.9158 57.5975 18.1738 59.6835 18.3138V16.4938C57.8775 16.4938 57.4715 17.0258 57.0235 18.0478C57.0095 18.0898 56.9395 18.2018 56.8555 18.1878ZM65.3391 13.9178V16.8858C65.3391 17.1798 65.4091 17.4038 65.5351 17.6558C65.6051 17.7958 65.6891 17.9638 65.5491 18.0338C65.4091 18.1038 65.3251 17.9218 65.2971 17.8658C64.8911 17.0538 64.1071 16.4938 62.9591 16.4938C61.0411 16.4938 59.7391 18.1738 59.7391 20.3018C59.7391 22.4298 61.0411 24.1098 62.9591 24.1098C64.0791 24.1098 64.7791 23.4938 65.2971 22.7238C65.3251 22.6818 65.3811 22.5418 65.5071 22.5838C65.6611 22.6398 65.6051 22.7798 65.5351 22.9198C65.4091 23.1718 65.3391 23.3958 65.3391 23.6758V23.9978H67.1311V13.9178H65.3391ZM63.3791 22.4858C62.1191 22.4858 61.5311 21.4778 61.5311 20.3018C61.5311 19.1258 62.1191 18.1178 63.3791 18.1178C64.5551 18.1178 65.3391 19.1258 65.3391 20.3018C65.3391 21.4778 64.5551 22.4858 63.3791 22.4858Z" fill="#6F6F80"/>
</svg>
