<svg width="14" height="15" viewBox="0 0 14 15" fill="none" xmlns="http://www.w3.org/2000/svg">
<path d="M6.99988 0.653809C3.13425 0.653809 -0.00012207 3.78818 -0.00012207 7.65381C-0.00012207 11.5194 3.13425 14.6538 6.99988 14.6538C10.8655 14.6538 13.9999 11.5194 13.9999 7.65381C13.9999 3.78818 10.8655 0.653809 6.99988 0.653809ZM6.99988 13.4663C3.7905 13.4663 1.18738 10.8632 1.18738 7.65381C1.18738 4.44443 3.7905 1.84131 6.99988 1.84131C10.2093 1.84131 12.8124 4.44443 12.8124 7.65381C12.8124 10.8632 10.2093 13.4663 6.99988 13.4663Z" fill="#8A91A8"/>
<path d="M6.24988 4.90381C6.24988 5.10272 6.3289 5.29349 6.46955 5.43414C6.6102 5.57479 6.80097 5.65381 6.99988 5.65381C7.19879 5.65381 7.38956 5.57479 7.53021 5.43414C7.67086 5.29349 7.74988 5.10272 7.74988 4.90381C7.74988 4.7049 7.67086 4.51413 7.53021 4.37348C7.38956 4.23283 7.19879 4.15381 6.99988 4.15381C6.80097 4.15381 6.6102 4.23283 6.46955 4.37348C6.3289 4.51413 6.24988 4.7049 6.24988 4.90381ZM7.37488 6.65381H6.62488C6.55613 6.65381 6.49988 6.71006 6.49988 6.77881V11.0288C6.49988 11.0976 6.55613 11.1538 6.62488 11.1538H7.37488C7.44363 11.1538 7.49988 11.0976 7.49988 11.0288V6.77881C7.49988 6.71006 7.44363 6.65381 7.37488 6.65381Z" fill="#8A91A8"/>
</svg>
